<mxfile host="Electron" modified="2023-09-23T17:54:33.622Z" agent="Mozilla/5.0 (Windows NT 10.0; Win64; x64) AppleWebKit/537.36 (KHTML, like Gecko) draw.io/21.7.5 Chrome/114.0.5735.289 Electron/25.8.1 Safari/537.36" etag="tYGSB1VaZ2a5VzhlFcuW" version="21.7.5" type="device">
  <diagram name="Страница 1" id="wzKG3Ap5GHBngDzpyD92">
    <mxGraphModel dx="1098" dy="694" grid="1" gridSize="10" guides="1" tooltips="1" connect="1" arrows="1" fold="1" page="1" pageScale="1" pageWidth="827" pageHeight="1169" math="0" shadow="0">
      <root>
        <mxCell id="0" />
        <mxCell id="1" parent="0" />
        <mxCell id="f7f5BljjRzMJ4bjESV1t-3" value="" style="rounded=1;whiteSpace=wrap;html=1;labelPosition=center;verticalLabelPosition=middle;align=center;verticalAlign=middle;fillColor=none;strokeColor=#CC00CC;" parent="1" vertex="1">
          <mxGeometry x="21" y="20" width="354.5" height="290" as="geometry" />
        </mxCell>
        <mxCell id="pc90bHrk7bZr-Mnp3X3H-20" value="" style="rounded=1;whiteSpace=wrap;html=1;fillColor=none;strokeColor=#CC00CC;" parent="1" vertex="1">
          <mxGeometry x="395.5" y="20" width="400" height="220" as="geometry" />
        </mxCell>
        <mxCell id="pc90bHrk7bZr-Mnp3X3H-18" value="" style="rounded=1;whiteSpace=wrap;html=1;labelPosition=center;verticalLabelPosition=middle;align=center;verticalAlign=middle;fillColor=none;strokeColor=#CC00CC;" parent="1" vertex="1">
          <mxGeometry x="21" y="320" width="354.5" height="350" as="geometry" />
        </mxCell>
        <mxCell id="pc90bHrk7bZr-Mnp3X3H-1" value="Proxy&lt;br&gt;SSH Бастион&lt;br&gt;(stage-bastion)" style="verticalLabelPosition=bottom;sketch=0;aspect=fixed;html=1;verticalAlign=top;strokeColor=none;align=center;outlineConnect=0;shape=mxgraph.citrix.proxy_server;fontColor=#007FFF;" parent="1" vertex="1">
          <mxGeometry x="245.5" y="520" width="76.5" height="90" as="geometry" />
        </mxCell>
        <mxCell id="pc90bHrk7bZr-Mnp3X3H-2" value="Интернет" style="verticalLabelPosition=bottom;sketch=0;aspect=fixed;html=1;verticalAlign=top;strokeColor=none;align=center;outlineConnect=0;shape=mxgraph.citrix.globe;labelBackgroundColor=none;labelBorderColor=none;spacingTop=0;spacing=3;fontColor=#007FFF;" parent="1" vertex="1">
          <mxGeometry x="450" y="530" width="78.5" height="75" as="geometry" />
        </mxCell>
        <mxCell id="pc90bHrk7bZr-Mnp3X3H-9" value="Control Plane&lt;br&gt;(stage-kube-master-1)" style="verticalLabelPosition=middle;sketch=0;aspect=fixed;html=1;verticalAlign=middle;strokeColor=none;align=right;outlineConnect=0;shape=mxgraph.citrix.command_center;labelPosition=left;fontColor=#007FFF;" parent="1" vertex="1">
          <mxGeometry x="195.5" y="190" width="75.5" height="96" as="geometry" />
        </mxCell>
        <mxCell id="pc90bHrk7bZr-Mnp3X3H-12" value="Worker&lt;br&gt;(stage-kube-worker-1)" style="verticalLabelPosition=middle;sketch=0;aspect=fixed;html=1;verticalAlign=middle;strokeColor=none;align=right;outlineConnect=0;shape=mxgraph.citrix.xenapp_server;labelPosition=left;fontColor=#007FFF;" parent="1" vertex="1">
          <mxGeometry x="245.5" y="40" width="76" height="89" as="geometry" />
        </mxCell>
        <mxCell id="pc90bHrk7bZr-Mnp3X3H-14" value="Worker&lt;br&gt;(stage-kube-worker-2)" style="verticalLabelPosition=top;sketch=0;aspect=fixed;html=1;verticalAlign=bottom;strokeColor=none;align=center;outlineConnect=0;shape=mxgraph.citrix.xenapp_server;labelPosition=center;fontColor=#007FFF;" parent="1" vertex="1">
          <mxGeometry x="660" y="67" width="76" height="89" as="geometry" />
        </mxCell>
        <mxCell id="f7f5BljjRzMJ4bjESV1t-1" value="" style="edgeStyle=orthogonalEdgeStyle;rounded=0;orthogonalLoop=1;jettySize=auto;html=1;strokeColor=#FF0000;" parent="1" source="pc90bHrk7bZr-Mnp3X3H-15" target="pc90bHrk7bZr-Mnp3X3H-16" edge="1">
          <mxGeometry relative="1" as="geometry" />
        </mxCell>
        <mxCell id="pc90bHrk7bZr-Mnp3X3H-15" value="GitLab&lt;br&gt;(stage-vm-1)" style="verticalLabelPosition=bottom;sketch=0;aspect=fixed;html=1;verticalAlign=top;strokeColor=none;align=center;outlineConnect=0;shape=mxgraph.citrix.desktop_web;fontColor=#007FFF;" parent="1" vertex="1">
          <mxGeometry x="75.5" y="373" width="76.5" height="90" as="geometry" />
        </mxCell>
        <mxCell id="pc90bHrk7bZr-Mnp3X3H-16" value="Grafana&lt;br&gt;InfluxDB&lt;br&gt;(stage-vm-2)" style="verticalLabelPosition=bottom;sketch=0;aspect=fixed;html=1;verticalAlign=top;strokeColor=none;align=center;outlineConnect=0;shape=mxgraph.citrix.desktop_web;fontColor=#007FFF;" parent="1" vertex="1">
          <mxGeometry x="75.5" y="522.5" width="76.5" height="90" as="geometry" />
        </mxCell>
        <mxCell id="pc90bHrk7bZr-Mnp3X3H-17" value="kube proxy&lt;br&gt;CI runner&lt;br&gt;(stage-vm-3)" style="verticalLabelPosition=bottom;sketch=0;aspect=fixed;html=1;verticalAlign=top;strokeColor=none;align=center;outlineConnect=0;shape=mxgraph.citrix.dhcp_server;fontColor=#007FFF;" parent="1" vertex="1">
          <mxGeometry x="260" y="350" width="76" height="90" as="geometry" />
        </mxCell>
        <mxCell id="pc90bHrk7bZr-Mnp3X3H-23" value="" style="endArrow=classic;startArrow=classic;html=1;rounded=0;strokeColor=#CC0000;" parent="1" source="pc90bHrk7bZr-Mnp3X3H-1" target="pc90bHrk7bZr-Mnp3X3H-2" edge="1">
          <mxGeometry width="50" height="50" relative="1" as="geometry">
            <mxPoint x="395.5" y="450" as="sourcePoint" />
            <mxPoint x="445.5" y="400" as="targetPoint" />
          </mxGeometry>
        </mxCell>
        <mxCell id="pc90bHrk7bZr-Mnp3X3H-24" value="" style="endArrow=classic;startArrow=classic;html=1;rounded=0;strokeColor=#FF0000;" parent="1" source="pc90bHrk7bZr-Mnp3X3H-15" target="pc90bHrk7bZr-Mnp3X3H-1" edge="1">
          <mxGeometry width="50" height="50" relative="1" as="geometry">
            <mxPoint x="395.5" y="450" as="sourcePoint" />
            <mxPoint x="445.5" y="400" as="targetPoint" />
          </mxGeometry>
        </mxCell>
        <mxCell id="pc90bHrk7bZr-Mnp3X3H-25" value="" style="endArrow=classic;startArrow=classic;html=1;rounded=0;strokeColor=#FF0000;" parent="1" source="pc90bHrk7bZr-Mnp3X3H-1" target="pc90bHrk7bZr-Mnp3X3H-16" edge="1">
          <mxGeometry width="50" height="50" relative="1" as="geometry">
            <mxPoint x="395.5" y="450" as="sourcePoint" />
            <mxPoint x="445.5" y="400" as="targetPoint" />
          </mxGeometry>
        </mxCell>
        <mxCell id="pc90bHrk7bZr-Mnp3X3H-26" value="" style="endArrow=classic;startArrow=classic;html=1;rounded=0;strokeColor=#FF0000;" parent="1" source="pc90bHrk7bZr-Mnp3X3H-17" target="pc90bHrk7bZr-Mnp3X3H-9" edge="1">
          <mxGeometry width="50" height="50" relative="1" as="geometry">
            <mxPoint x="395.5" y="450" as="sourcePoint" />
            <mxPoint x="445.5" y="400" as="targetPoint" />
          </mxGeometry>
        </mxCell>
        <mxCell id="pc90bHrk7bZr-Mnp3X3H-41" value="" style="endArrow=classic;html=1;rounded=0;strokeColor=#FF0000;" parent="1" source="pc90bHrk7bZr-Mnp3X3H-15" target="pc90bHrk7bZr-Mnp3X3H-17" edge="1">
          <mxGeometry width="50" height="50" relative="1" as="geometry">
            <mxPoint x="395.5" y="450" as="sourcePoint" />
            <mxPoint x="445.5" y="400" as="targetPoint" />
          </mxGeometry>
        </mxCell>
        <mxCell id="pc90bHrk7bZr-Mnp3X3H-47" value="" style="endArrow=none;dashed=1;html=1;dashPattern=1 3;strokeWidth=2;rounded=0;strokeColor=#FF0000;" parent="1" source="pc90bHrk7bZr-Mnp3X3H-9" target="pc90bHrk7bZr-Mnp3X3H-12" edge="1">
          <mxGeometry width="50" height="50" relative="1" as="geometry">
            <mxPoint x="395.5" y="450" as="sourcePoint" />
            <mxPoint x="445.5" y="400" as="targetPoint" />
          </mxGeometry>
        </mxCell>
        <mxCell id="pc90bHrk7bZr-Mnp3X3H-49" value="" style="endArrow=none;dashed=1;html=1;dashPattern=1 3;strokeWidth=2;rounded=0;strokeColor=#FF0000;" parent="1" source="pc90bHrk7bZr-Mnp3X3H-9" target="pc90bHrk7bZr-Mnp3X3H-14" edge="1">
          <mxGeometry width="50" height="50" relative="1" as="geometry">
            <mxPoint x="395.5" y="450" as="sourcePoint" />
            <mxPoint x="445.5" y="400" as="targetPoint" />
          </mxGeometry>
        </mxCell>
        <mxCell id="pc90bHrk7bZr-Mnp3X3H-56" value="&lt;b&gt;Зона доступности A&lt;br&gt;(stage-subnet-kube-a)&lt;br&gt;&lt;/b&gt;" style="text;html=1;strokeColor=none;fillColor=none;align=center;verticalAlign=middle;whiteSpace=wrap;rounded=0;fontColor=#97D077;" parent="1" vertex="1">
          <mxGeometry x="40" y="37" width="130" height="23" as="geometry" />
        </mxCell>
        <mxCell id="pc90bHrk7bZr-Mnp3X3H-57" value="&lt;b&gt;Зона доступности B&lt;br&gt;(stage-subnet-kube-b)&lt;br&gt;&lt;/b&gt;" style="text;html=1;strokeColor=none;fillColor=none;align=center;verticalAlign=middle;whiteSpace=wrap;rounded=0;fontColor=#97D077;" parent="1" vertex="1">
          <mxGeometry x="650" y="180" width="131" height="53" as="geometry" />
        </mxCell>
        <mxCell id="f7f5BljjRzMJ4bjESV1t-2" value="&lt;b&gt;Зона доступности A&lt;br&gt;(stage-subnet-main)&lt;br&gt;&lt;/b&gt;" style="text;html=1;strokeColor=none;fillColor=none;align=center;verticalAlign=middle;whiteSpace=wrap;rounded=0;fontColor=#97D077;" parent="1" vertex="1">
          <mxGeometry x="50" y="320" width="140" height="40" as="geometry" />
        </mxCell>
        <mxCell id="f7f5BljjRzMJ4bjESV1t-5" value="" style="endArrow=classic;startArrow=classic;html=1;rounded=0;strokeColor=#FF0000;" parent="1" source="pc90bHrk7bZr-Mnp3X3H-17" target="pc90bHrk7bZr-Mnp3X3H-1" edge="1">
          <mxGeometry width="50" height="50" relative="1" as="geometry">
            <mxPoint x="580" y="509.92" as="sourcePoint" />
            <mxPoint x="674" y="590.92" as="targetPoint" />
          </mxGeometry>
        </mxCell>
      </root>
    </mxGraphModel>
  </diagram>
</mxfile>
